<svg height="511pt" viewBox="0 -46 511.99768 511" width="511pt" xmlns="http://www.w3.org/2000/svg"><path d="m511.96875 246.214844c-.042969-14.839844-12.136719-26.90625-26.96875-26.90625l-40.914062.027344c-10.085938 0-18.886719 5.582031-23.5 13.816406l-53.929688-21.140625c-.167969-.070313-.339844-.128907-.511719-.1875-27.742187-9.144531-35.546875-6.554688-78.859375 7.835937-2.570312.851563-5.277344 1.75-8.132812 2.695313-15.59375 4.59375-23.832032 17.644531-20.5 32.535156 1.667968 7.464844 6.09375 14.59375 12.613281 20.082031-6.792969 1.949219-11.78125 3.296875-17.019531 4.300782l-5.289063-.84375-42.964843-129.945313c9.234374-4.503906 15.613281-13.988281 15.613281-24.929687 0-15.285157-12.4375-27.722657-27.726563-27.722657h-16.660156v-35.859375h25.214844l20.320312 15.234375c5.453125 4.097657 11.558594 6.191407 17.664063 6.191407 3.632812 0 7.265625-.742188 10.757812-2.242188 10.125-4.355469 17.496094-14.359375 18.78125-25.488281 1.179688-10.257813-3.039062-19.75-11.5625-26.039063l-27.011719-19.945312c-5.394531-4.636719-12.25-7.183594-19.355468-7.183594h-135.484375c-16.394531 0-29.738281 13.335938-29.738281 29.734375s13.34375 29.738281 29.738281 29.738281h28.539062v35.859375h-15.964843c-15.285157 0-27.71875 12.4375-27.71875 27.722657 0 10.746093 6.148437 20.078124 15.117187 24.675781l-75.449219 237.125c-2.238281 7.023437-.929687 14.375 3.691406 20.699219 5.96875 8.167968 16.554688 13.441406 26.980469 13.441406h221.875c10.355469 0 21.265625-5.46875 27.148438-13.605469 4.574219-6.332031 5.824219-13.660156 3.515625-20.636719l-10.273438-31.03125 35.074219-4.578125c5.410156-.707031 9.226563-5.667969 8.519531-11.082031-.707031-5.414062-5.671875-9.230469-11.078125-8.523438l-65.019531 8.484376-90.503906-36.171876c-4.90625-1.957031-7.277344-8.171874-6.042969-12.210937 1.707031-5.589844 10.660156-7.347656 23.359375-4.589844.179688.039063.359375.074219.539062.101563l83.953126 13.414062c1.089843.171875 2.203124.164063 3.285156-.03125 8.160156-1.445312 15.222656-3.488281 25.90625-6.585937 7.195312-2.082031 16.113281-4.664063 28.253906-7.898438.160156-.039062.320312-.082031.480469-.128906 6.476562-1.722656 13.859375-3.628906 22.378906-5.738281 5.296875-1.316406 8.53125-6.675782 7.214844-11.972656-1.3125-5.300782-6.675781-8.53125-11.96875-7.21875-8.542969 2.117187-15.960938 4.03125-22.472657 5.761718-16.28125 2.386719-26.292968-7.292968-27.941406-14.679687-.660156-2.941407-.660156-7.105469 6.890625-9.285157.121094-.035156.242188-.070312.359375-.109374 2.925782-.96875 5.695313-1.886719 8.320313-2.761719 41.355469-13.734375 44.886719-14.90625 66.183593-7.902344l57.457032 22.523437.023437 59.9375-33.808593 5.371094c-5.390626.855469-9.066407 5.917969-8.210938 11.3125.773438 4.867188 4.972656 8.335938 9.75 8.335938.515625 0 1.039062-.042969 1.5625-.125l33.175781-5.265625c4.273438 9.28125 13.65625 15.746093 24.507813 15.746093l40.90625-.027343c14.855468 0 26.9375-12.09375 26.9375-26.96875zm-435.425781-206.015625c-5.496094 0-9.96875-4.46875-9.96875-9.964844 0-5.402344 4.566406-9.964844 9.96875-9.964844h135.484375c2.425781 0 4.769531.894531 6.597656 2.519531.222656.195313.453125.382813.691406.558594l27.339844 20.191406c2.832031 2.089844 4.027344 4.664063 3.660156 7.867188-.464844 4.023438-3.386718 8.054688-6.949218 9.585938-2.832032 1.21875-5.695313.699218-8.75-1.59375l-22.960938-17.21875c-1.710938-1.285157-3.792969-1.976563-5.929688-1.976563h-129.183593zm80.90625 19.773437v35.859375h-32.597657v-35.859375zm-68.332031 55.632813h104.761718c4.386719 0 7.953125 3.566406 7.953125 7.949219 0 4.308593-3.640625 7.949218-7.953125 7.949218h-.789062c-.011719 0-.027344 0-.042969 0h-103.867187c-.03125 0-.0625-.003906-.09375-.003906-4.296876-.015625-7.921876-3.648438-7.921876-7.945312 0-4.386719 3.570313-7.949219 7.953126-7.949219zm83.117187 150.570312c-28.105469-6.015625-42.285156 5.433594-46.1875 18.1875-4.402344 14.414063 3.503906 30.722657 17.621094 36.351563l92.890625 37.125c1.167968.46875 2.414062.707031 3.667968.707031.425782 0 .851563-.027344 1.277344-.082031l12.539063-1.636719 11.46875 34.640625c.117187.363281.402343 1.21875-.773438 2.847656-2.195312 3.035156-7.082031 5.414063-11.125 5.414063h-221.875c-3.992187 0-8.832031-2.34375-11.019531-5.335938-1.242188-1.703125-.945312-2.628906-.816406-3.035156l76.386718-240.085937h89.804688l40.882812 123.644531zm312.820313 62.382813-40.90625.027344c-3.957032 0-7.1875-3.230469-7.199219-7.171876l-.027344-75.113281c0-3.902343 3.285156-7.195312 7.167969-7.195312h.007812l40.90625-.027344c3.957032 0 7.1875 3.226563 7.199219 7.167969l.027344 75.117187c0 3.898438-3.285157 7.195313-7.175781 7.195313zm0 0"/><path d="m265.339844 99.925781c-1.101563 1.949219-2.308594 4.054688-3.566406 6.25-9.65625 16.855469-17.199219 30.421875-19.207032 38.863281-.03125.128907-.058594.265626-.085937.398438-.601563 2.675781-.910157 5.429688-.910157 8.1875 0 20.316406 16.519532 36.847656 36.824219 36.847656 20.320313 0 36.851563-16.53125 36.851563-36.847656 0-2.753906-.304688-5.5-.910156-8.175781-.027344-.144531-.058594-.289063-.09375-.433594-2.046876-8.527344-9.828126-22.53125-19.785157-39.945313-1.183593-2.074218-2.3125-4.046874-3.339843-5.867187-1.746094-3.085937-5.375-9.511719-12.65625-9.527344-.007813 0-.015626 0-.023438 0-7.261719.003907-10.765625 6.152344-13.097656 10.25zm29.621094 49.460938c.019531.078125.035156.15625.054687.238281.308594 1.300781.460937 2.648438.460937 4 0 9.414062-7.660156 17.074219-17.082031 17.074219-9.40625 0-17.054687-7.660157-17.054687-17.074219 0-1.351562.15625-2.699219.460937-4 .023438-.085938.039063-.171875.058594-.257812 1.636719-6.332032 10.441406-21.792969 16.574219-32.5 6.308594 11.042968 14.898437 26.265624 16.527344 32.519531zm0 0"/><path d="m345.976562 324.300781-.167968.027344c-5.382813.90625-9.011719 6.003906-8.105469 11.390625.816406 4.828125 5 8.242188 9.738281 8.242188.542969 0 1.097656-.046876 1.652344-.140626l.167969-.027343c5.382812-.90625 9.011719-6.007813 8.105469-11.390625-.910157-5.382813-6.003907-9.011719-11.390626-8.101563zm0 0"/></svg>