<svg height="480pt" viewBox="-32 0 480 480" width="480pt" xmlns="http://www.w3.org/2000/svg"><path d="m374.855469 206.769531-16.886719-14.472656c-8.867188-7.601563-13.96875-18.699219-13.96875-30.375v-1.921875c4.417969 0 8-3.582031 8-8v-32c0-13.253906-10.746094-24-24-24h-32c-13.253906 0-24 10.746094-24 24v32c0 4.417969 3.582031 8 8 8v1.921875c.007812 11.6875-5.097656 22.792969-13.976562 30.398437l-16.871094 14.472657c-15.964844 13.664062-25.15625 33.632812-25.152344 54.648437v162.558594c.035156 30.914062 25.085938 55.964844 56 56h64c30.914062-.035156 55.964844-25.085938 56-56v-162.558594c.011719-21.023437-9.175781-41-25.144531-54.671875zm-86.855469-86.769531c0-4.417969 3.582031-8 8-8h32c4.417969 0 8 3.582031 8 8v24h-48zm96 304c-.027344 22.082031-17.917969 39.972656-40 40h-64c-22.078125-.027344-39.972656-17.917969-40-40v-162.558594c-.007812-16.351562 7.136719-31.890625 19.558594-42.519531l16.882812-14.480469c12.421875-10.632812 19.566406-26.171875 19.558594-42.519531v-1.921875h32v1.921875c0 16.347656 7.140625 31.878906 19.550781 42.519531l16.898438 14.480469c12.417969 10.632813 19.558593 26.167969 19.550781 42.519531zm0 0"/><path d="m104 408c-30.914062-.035156-55.964844-25.085938-56-56v-64c0-30.929688 25.074219-56 56-56 30.929688 0 56 25.070312 56 56v64c-.035156 30.914062-25.085938 55.964844-56 56zm0-160c-22.078125.027344-39.972656 17.917969-40 40v64c0 22.089844 17.910156 40 40 40 22.09375 0 40-17.910156 40-40v-64c-.027344-22.082031-17.917969-39.972656-40-40zm0 0"/><path d="m312 384c-26.5-.027344-47.972656-21.5-48-48v-16c0-26.507812 21.492188-48 48-48 26.511719 0 48 21.492188 48 48v16c-.027344 26.5-21.5 47.972656-48 48zm0-96c-17.671875 0-32 14.328125-32 32v16c0 17.671875 14.328125 32 32 32s32-14.328125 32-32v-16c0-17.671875-14.328125-32-32-32zm0 0"/><path d="m344 48c-13.253906 0-24-10.746094-24-24s10.746094-24 24-24 24 10.746094 24 24-10.746094 24-24 24zm0-32c-4.417969 0-8 3.582031-8 8s3.582031 8 8 8 8-3.582031 8-8-3.582031-8-8-8zm0 0"/><path d="m384 112c-17.671875 0-32-14.328125-32-32s14.328125-32 32-32 32 14.328125 32 32-14.328125 32-32 32zm0-48c-8.835938 0-16 7.164062-16 16s7.164062 16 16 16 16-7.164062 16-16-7.164062-16-16-16zm0 0"/><path d="m192 0h-128c-13.253906 0-24 10.746094-24 24s10.746094 24 24 24h8v16h-8c-4.417969 0-8 3.582031-8 8v48c0 4.417969 3.582031 8 8 8v4.222656c.027344 9.097656-5.113281 17.421875-13.261719 21.464844l-2.089843 1.039062c-29.894532 14.820313-48.757813 45.347657-48.648438 78.714844v190.558594c.0351562 30.914062 25.085938 55.964844 56 56h96c30.914062-.035156 55.964844-25.085938 56-56v-190.558594c.113281-33.367187-18.753906-63.894531-48.648438-78.714844l-2.085937-1.039062c-8.148437-4.042969-13.292969-12.367188-13.265625-21.464844v-4.222656c4.417969 0 8-3.582031 8-8v-48c0-4.417969-3.582031-8-8-8h-8v-16h56c4.417969 0 8 3.582031 8 8v16c0 4.417969 3.582031 8 8 8h32c4.417969 0 8-3.582031 8-8v-16c-.035156-30.914062-25.085938-55.9648438-56-56zm-120 80h64v32h-64zm78.113281 88 2.078125 1.039062c24.460938 12.125 39.902344 37.101563 39.808594 64.402344v190.558594c-.027344 22.082031-17.917969 39.972656-40 40h-96c-22.078125-.027344-39.972656-17.917969-40-40v-190.558594c-.089844-27.300781 15.347656-52.277344 39.808594-64.402344l2.078125-1.039062c13.589843-6.734375 22.164062-20.609375 22.113281-35.777344v-4.222656h48v4.222656c-.050781 15.167969 8.527344 29.042969 22.113281 35.777344zm-30.113281-104h-32v-16h32zm112 0h-16v-8c0-13.253906-10.746094-24-24-24h-128c-4.417969 0-8-3.582031-8-8s3.582031-8 8-8h128c22.082031.027344 39.972656 17.917969 40 40zm0 0"/></svg>